<?xml version="1.0"?>
<svg xmlns="http://www.w3.org/2000/svg" width="512" height="512" viewBox="0 0 128 128">
  <path fill="white" d="M120.25,51.938h-2.258V38.5a19.771,19.771,0,0,0-19.75-19.75H29.758A19.771,19.771,0,0,0,10.008,38.5V51.938H7.75A7.759,7.759,0,0,0,0,59.688V82.75A13.765,13.765,0,0,0,13.75,96.5h3.625v11a1.749,1.749,0,0,0,1.75,1.75H29a1.749,1.749,0,0,0,1.75-1.75v-11h66.5v11A1.749,1.749,0,0,0,99,109.25h9.875a1.749,1.749,0,0,0,1.75-1.75v-11h3.625A13.765,13.765,0,0,0,128,82.75V59.688A7.759,7.759,0,0,0,120.25,51.938ZM13.508,38.5a16.269,16.269,0,0,1,16.25-16.25H98.242a16.269,16.269,0,0,1,16.25,16.25V51.938h-2.258a7.759,7.759,0,0,0-7.75,7.75v4.539a12.529,12.529,0,0,0-9.076-3.894H32.592a12.529,12.529,0,0,0-9.076,3.894V59.688a7.759,7.759,0,0,0-7.75-7.75H13.508ZM23.516,72.908a9.085,9.085,0,0,1,9.076-9.075H95.408a9.085,9.085,0,0,1,9.076,9.075v.076H23.516ZM27.25,105.75H20.875V96.5H27.25Zm79.875,0H100.75V96.5h6.375Zm17.375-23A10.261,10.261,0,0,1,114.25,93H13.75A10.261,10.261,0,0,1,3.5,82.75V59.688a4.254,4.254,0,0,1,4.25-4.25h8.016a4.255,4.255,0,0,1,4.25,4.25V74.734a1.749,1.749,0,0,0,1.75,1.75h84.468a1.749,1.749,0,0,0,1.75-1.75V59.688a4.255,4.255,0,0,1,4.25-4.25h8.016a4.254,4.254,0,0,1,4.25,4.25Z"/>
  <path fill="white" d="M19.758,40.25a1.749,1.749,0,0,0,1.75-1.75,8.259,8.259,0,0,1,8.25-8.25H98.242a8.259,8.259,0,0,1,8.25,8.25,1.75,1.75,0,1,0,3.5,0,11.763,11.763,0,0,0-11.75-11.75H29.758A11.763,11.763,0,0,0,18.008,38.5,1.749,1.749,0,0,0,19.758,40.25Z"/>
</svg>
